<?xml version="1.0" encoding="iso-8859-1"?>
<!-- Generator: Adobe Illustrator 19.0.0, SVG Export Plug-In . SVG Version: 6.00 Build 0)  -->
<svg version="1.1" id="Capa_1" xmlns="http://www.w3.org/2000/svg" xmlns:xlink="http://www.w3.org/1999/xlink" x="0px" y="0px"
	 viewBox="0 0 496 496" style="enable-background:new 0 0 496 496;" xml:space="preserve">
<g>
	<g>
		<g>
			<path d="M248,144c13.232,0,24-10.768,24-24s-10.768-24-24-24s-24,10.768-24,24S234.768,144,248,144z M248,112
				c4.408,0,8,3.592,8,8c0,4.408-3.592,8-8,8c-4.408,0-8-3.592-8-8S243.592,112,248,112z"/>
			<path d="M389.992,457.432L312,262.456V248h16c8.824,0,16-7.176,16-16v-9.472c9.288-3.312,16-12.112,16-22.528
				s-6.712-19.216-16-22.528V104c0-8.824-7.176-16-16-16V24c0-13.232-10.768-24-24-24H192c-13.232,0-24,10.768-24,24v64
				c-8.824,0-16,7.176-16,16v128c0,8.824,7.176,16,16,16h16v14.456L106.008,457.44c-1.336,3.328-2.008,6.84-2.008,10.432
				C104,483.384,116.616,496,132.128,496h6.008c11.592,0,22.152-7.28,26.28-18.112L216,342.472V472c0,13.232,10.768,24,24,24h16
				c13.232,0,24-10.768,24-24V342.472l51.584,135.416C335.712,488.72,346.272,496,357.864,496h6.008
				C379.384,496,392,483.384,392,467.872C392,464.28,391.328,460.768,389.992,457.432z M336,192c4.408,0,8,3.592,8,8s-3.592,8-8,8
				c-4.408,0-8-3.592-8-8S331.592,192,336,192z M184,24c0-4.408,3.592-8,8-8h112c4.408,0,8,3.592,8,8v64h-8
				c-2.928,0-5.64,0.848-8,2.224V32h-96v58.224c-2.36-1.376-5.072-2.224-8-2.224h-8V24z M248,80c22.056,0,40,17.944,40,40
				c0,22.056-17.944,40-40,40c-22.056,0-40-17.944-40-40C208,97.944,225.944,80,248,80z M216,74.112V48h64v26.112
				C270.92,67.76,259.896,64,248,64S225.08,67.76,216,74.112z M168,104h24v16c0,30.88,25.12,56,56,56s56-25.12,56-56v-16h24v73.472
				c-9.288,3.312-16,12.112-16,22.528s6.712,19.216,16,22.528V232h-24v-16c0-8.824-7.176-16-16-16h-48c-8.824,0-16,7.176-16,16v16
				h-16v-40c0-8.824-7.176-16-16-16h-24V104z M288,216v16h-48v-16H288z M168,232v-40h24v40H168z M149.456,472.192
				c-1.776,4.672-6.328,7.808-11.32,7.808h-6.008C125.44,480,120,474.56,120,467.872c0-1.552,0.296-3.064,0.864-4.496l2.208-5.528
				l27.64,11.056L149.456,472.192z M156.408,453.944l-27.392-10.96L194.616,279c1.688,0.608,3.488,1,5.384,1v32
				c0,4.936,2.296,9.304,5.824,12.24L156.408,453.944z M264,472c0,4.408-3.592,8-8,8h-16c-4.408,0-8-3.592-8-8v-8h32V472z M264,448
				h-32V328h32V448z M280,312h-64v-32h32v-16h-48v-16h96v16h-32v16h16V312z M290.176,324.24c3.528-2.936,5.824-7.304,5.824-12.24
				v-32c1.896,0,3.696-0.392,5.384-1l65.6,163.984l-27.392,10.96L290.176,324.24z M363.872,480h-6.008
				c-5,0-9.552-3.136-11.328-7.808l-1.256-3.288l27.64-11.056l2.208,5.52c0.576,1.44,0.872,2.96,0.872,4.504
				C376,474.56,370.56,480,363.872,480z"/>
		</g>
	</g>
</g>
<g>
</g>
<g>
</g>
<g>
</g>
<g>
</g>
<g>
</g>
<g>
</g>
<g>
</g>
<g>
</g>
<g>
</g>
<g>
</g>
<g>
</g>
<g>
</g>
<g>
</g>
<g>
</g>
<g>
</g>
</svg>
