<?xml version="1.0" encoding="iso-8859-1"?>
<!-- Generator: Adobe Illustrator 19.0.0, SVG Export Plug-In . SVG Version: 6.00 Build 0)  -->
<svg version="1.1" id="Capa_1" xmlns="http://www.w3.org/2000/svg" xmlns:xlink="http://www.w3.org/1999/xlink" x="0px" y="0px"
	 viewBox="0 0 512 512" style="enable-background:new 0 0 512 512;" xml:space="preserve">
<g>
	<g>
		<path d="M256,120c-5.52,0-10,4.48-10,10c0,5.52,4.48,10,10,10s10-4.48,10-10S261.52,120,256,120z"/>
	</g>
</g>
<g>
	<g>
		<path d="M256,409c-5.52,0-10,4.48-10,10c0,5.52,4.48,10,10,10s10-4.48,10-10C266,413.48,261.52,409,256,409z"/>
	</g>
</g>
<g>
	<g>
		<path d="M462,40H286V30c0-16.542-13.458-30-30-30s-30,13.458-30,30v10H83V10c0-5.523-4.478-10-10-10H50C22.43,0,0,22.43,0,50
			v368.99c0,0.001,0,0.002,0,0.003c0,0.002,0,0.004,0,0.007c0,27.57,22.43,50,50,50h379v33c0,5.523,4.478,10,10,10h23
			c13.375,0,26.052-5.86,35.694-16.501C506.786,485.465,512,472.162,512,459V90C512,62.43,489.57,40,462,40z M246,30
			c0-5.514,4.486-10,10-10c5.514,0,10,4.486,10,10v50h-20V30z M236,100h40h10v30c0,7.199-2.593,14.158-7.315,19.612
			c-5.248,6.089-12.695,9.78-20.645,10.314c-0.663-0.138-1.344-0.216-2.04-0.216c-0.694,0-1.374,0.078-2.036,0.215
			c-8.086-0.545-15.614-4.336-20.896-10.599C228.511,143.931,226,137.067,226,130v-30H236z M311.124,285.999V286l-41.243-107.973
			c4.727-1.366,9.221-3.424,13.343-6.104c13.417,26.441,30.385,64.697,50.599,114.076H311.124z M341.943,306
			c9.523,23.652,18.143,45.713,24.809,63h-3.612c-10.879,0-20.848-5.853-26.162-15.316L318.764,306H341.943z M256,266
			c-5.522,0-10,4.477-10,10v10h-23.715L256,197.735L289.715,286H266v-10C266,270.477,261.522,266,256,266z M181.642,286
			l47.703-113.716c3.966,2.504,8.26,4.443,12.772,5.746L200.876,286H181.642z M193.236,306l-18.214,47.684
			C169.708,363.147,159.739,369,148.86,369h-2.037l26.428-63H193.236z M20,50c0-16.542,13.458-30,30-30h13v349H50
			c-10.964,0-21.39,3.508-30,9.995V50z M492,459c0,17.271-14.299,33-30,33h-13V140h13c11.247,0,21.637-3.735,30-10.027V459z
			 M462,120h-23c-5.522,0-10,4.477-10,10v319H50c-16.542,0-30-13.458-30-30.01c0-8.001,3.122-15.53,8.791-21.199
			C34.46,392.122,41.992,389,50,389h23c5.522,0,10-4.477,10-10V60h143v20h-10c-5.522,0-10,4.477-10,10v40
			c0,9.659,2.817,19.089,8.014,27.129L159.953,286H136c-5.522,0-10,4.477-10,10s4.478,10,10,10h15.563l-45.055,107.402
			c-2.136,5.093,0.261,10.953,5.354,13.089c1.264,0.53,2.574,0.781,3.864,0.781c3.907,0,7.619-2.305,9.226-6.135L138.434,389h10.427
			c18.46,0,35.348-10.11,44.073-26.385c0.2-0.374,0.377-0.76,0.528-1.157L214.646,306H246v10c0,5.523,4.478,10,10,10
			c5.522,0,10-4.477,10-10v-10h31.354l21.184,55.458c0.151,0.396,0.328,0.783,0.528,1.157C327.792,378.89,344.68,389,363.14,389
			h11.275c5.338,14.028,8.543,22.668,8.58,22.766c0.02,0.055,0.04,0.109,0.062,0.163l4.11,10.52
			c1.543,3.949,5.318,6.363,9.317,6.363c1.21,0,2.441-0.221,3.637-0.688c5.144-2.01,7.685-7.81,5.675-12.954l-4.079-10.44
			c-0.398-1.072-4.575-12.309-11.145-29.491c-6.472-16.933-16.072-41.751-27.077-69.24H396c5.522,0,10-4.477,10-10s-4.478-10-10-10
			h-40.575c-23.308-57.303-42.578-100.621-57.374-128.976C303.209,149.008,306,139.634,306,130V90c0-5.523-4.478-10-10-10h-10V60
			h176c16.542,0,30,13.458,30,30S478.542,120,462,120z"/>
	</g>
</g>
<g>
	<g>
		<path d="M356,409h-60c-5.522,0-10,4.477-10,10s4.478,10,10,10h60c5.522,0,10-4.477,10-10S361.522,409,356,409z"/>
	</g>
</g>
<g>
	<g>
		<path d="M216,409h-60c-5.522,0-10,4.477-10,10s4.478,10,10,10h60c5.522,0,10-4.477,10-10S221.522,409,216,409z"/>
	</g>
</g>
<g>
</g>
<g>
</g>
<g>
</g>
<g>
</g>
<g>
</g>
<g>
</g>
<g>
</g>
<g>
</g>
<g>
</g>
<g>
</g>
<g>
</g>
<g>
</g>
<g>
</g>
<g>
</g>
<g>
</g>
</svg>
